<svg xmlns="http://www.w3.org/2000/svg" viewBox="0 0 1565.32 379.94"><defs><style>.cls-1{fill:#fff;}</style></defs><g id="Layer_2" data-name="Layer 2"><g id="Layer_1-2" data-name="Layer 1"><path class="cls-1" d="M441.13,234.22V103.28H516a42.23,42.23,0,0,1,18.6,4,31.84,31.84,0,0,1,13.08,11.26,30.22,30.22,0,0,1,4.77,17,32.41,32.41,0,0,1-2.86,13.93,28.61,28.61,0,0,1-7.73,10.12,32.47,32.47,0,0,1-11,5.92v.76A32.62,32.62,0,0,1,543.72,172a30.44,30.44,0,0,1,9,10.79A34.05,34.05,0,0,1,556,198.33q0,11.85-5.44,19.85a33.63,33.63,0,0,1-14.41,12,48.69,48.69,0,0,1-20,4Zm28.43-78.07h37.8a17.44,17.44,0,0,0,8.68-2,13.62,13.62,0,0,0,5.35-5.35,16,16,0,0,0,1.81-7.73q0-7.44-4.11-11.26T508.31,126H469.56Zm0,54.78h41a16.69,16.69,0,0,0,11.55-4q4.49-4,4.48-12.4a18.12,18.12,0,0,0-1.91-8.59A13.19,13.19,0,0,0,519,180.3a20.83,20.83,0,0,0-9.74-2h-39.7Z"/><path class="cls-1" d="M560.8,234.22l50.38-130.94H646.3l50.39,130.94H666l-9.35-25.77H599.54l-9.35,25.77Zm47-48.67H648.4l-11.64-32.26c-.51-1.4-1.11-3.08-1.81-5.06s-1.43-4.16-2.2-6.58-1.49-4.81-2.19-7.16-1.37-4.49-2-6.4h-1.14q-1,3.63-2.48,8.5t-3.06,9.35c-1,3-1.84,5.44-2.48,7.35Z"/><path class="cls-1" d="M758.53,236.51a100.45,100.45,0,0,1-21.75-2.29,56.26,56.26,0,0,1-18.23-7.35,37.25,37.25,0,0,1-12.41-12.79q-4.49-7.72-4.48-18.8v-2a5.37,5.37,0,0,1,.19-1.63H730.1a4.93,4.93,0,0,0-.2,1.53v1.72a16.09,16.09,0,0,0,3.34,10.31,20,20,0,0,0,9.83,6.29,48.79,48.79,0,0,0,15.08,2.1,65.27,65.27,0,0,0,9.83-.66,39.46,39.46,0,0,0,7.64-1.91,20.79,20.79,0,0,0,5.53-3,10.85,10.85,0,0,0,3.25-4,12.37,12.37,0,0,0,1.05-5.15,11.21,11.21,0,0,0-3.34-8.4,27.58,27.58,0,0,0-9.17-5.54,120.86,120.86,0,0,0-13.07-4.2L745,176.86a119.08,119.08,0,0,1-14.88-5,60,60,0,0,1-13-7.16A31.05,31.05,0,0,1,708,154.05a33,33,0,0,1-3.43-15.65,32.77,32.77,0,0,1,4.1-16.79A33.26,33.26,0,0,1,720.17,110a56,56,0,0,1,17.18-6.77,96.45,96.45,0,0,1,21.18-2.2,90.34,90.34,0,0,1,20.24,2.2,51.08,51.08,0,0,1,16.79,7,34.81,34.81,0,0,1,11.36,12,34.39,34.39,0,0,1,4.1,17.18v2.29H783.35v-1.53a13.16,13.16,0,0,0-3.06-8.78,20.44,20.44,0,0,0-8.59-5.73,36.72,36.72,0,0,0-13-2.1A52.62,52.62,0,0,0,745.08,125a18.91,18.91,0,0,0-8.59,4.49,9.49,9.49,0,0,0-3,7,9.6,9.6,0,0,0,3.34,7.54,29.4,29.4,0,0,0,9.16,5.16,108.5,108.5,0,0,0,13.08,3.91q7.25,1.71,14.88,3.82a146,146,0,0,1,14.89,5,55.16,55.16,0,0,1,13,7.16A32.51,32.51,0,0,1,811,179.63a31.08,31.08,0,0,1,3.44,15.08q0,15.07-7.26,24.24t-19.85,13.36A90.94,90.94,0,0,1,758.53,236.51Z"/><path class="cls-1" d="M883.36,236.51a100.48,100.48,0,0,1-21.76-2.29,56.35,56.35,0,0,1-18.23-7.35A37.13,37.13,0,0,1,831,214.08q-4.5-7.72-4.49-18.8v-2a5.37,5.37,0,0,1,.19-1.63h28.25a5,5,0,0,0-.19,1.53v1.72a16,16,0,0,0,3.34,10.31,19.88,19.88,0,0,0,9.83,6.29A48.7,48.7,0,0,0,883,213.6a65.36,65.36,0,0,0,9.83-.66,39.54,39.54,0,0,0,7.63-1.91,20.86,20.86,0,0,0,5.54-3,10.82,10.82,0,0,0,3.24-4,12.22,12.22,0,0,0,1-5.15,11.17,11.17,0,0,0-3.34-8.4,27.53,27.53,0,0,0-9.16-5.54,120.36,120.36,0,0,0-13.08-4.2l-14.88-3.91a119.23,119.23,0,0,1-14.89-5,60.26,60.26,0,0,1-13-7.16,31,31,0,0,1-9.16-10.69,33,33,0,0,1-3.44-15.65,32.77,32.77,0,0,1,4.11-16.79A33.15,33.15,0,0,1,845,110a56.13,56.13,0,0,1,17.18-6.77,96.48,96.48,0,0,1,21.19-2.2,90.25,90.25,0,0,1,20.23,2.2,51.14,51.14,0,0,1,16.8,7,34.78,34.78,0,0,1,11.35,12,34.29,34.29,0,0,1,4.11,17.18v2.29H908.17v-1.53a13.2,13.2,0,0,0-3-8.78,20.5,20.5,0,0,0-8.59-5.73,36.76,36.76,0,0,0-13-2.1A52.65,52.65,0,0,0,869.9,125a19,19,0,0,0-8.59,4.49,9.53,9.53,0,0,0-3,7,9.64,9.64,0,0,0,3.34,7.54,29.35,29.35,0,0,0,9.17,5.16,108.31,108.31,0,0,0,13.07,3.91q7.25,1.71,14.89,3.82a146,146,0,0,1,14.89,5,55.09,55.09,0,0,1,13,7.16,32.54,32.54,0,0,1,9.17,10.59,31.08,31.08,0,0,1,3.43,15.08q0,15.07-7.25,24.24t-19.85,13.36A91,91,0,0,1,883.36,236.51Z"/><path class="cls-1" d="M1008.18,236.51a100.55,100.55,0,0,1-21.76-2.29,56.2,56.2,0,0,1-18.22-7.35,37.16,37.16,0,0,1-12.41-12.79q-4.49-7.72-4.49-18.8v-2a5.71,5.71,0,0,1,.19-1.63h28.25a5.3,5.3,0,0,0-.19,1.53v1.72a16,16,0,0,0,3.34,10.31,19.93,19.93,0,0,0,9.83,6.29,48.74,48.74,0,0,0,15.08,2.1,65.27,65.27,0,0,0,9.83-.66,39.35,39.35,0,0,0,7.63-1.91,20.71,20.71,0,0,0,5.54-3,10.82,10.82,0,0,0,3.24-4,12.22,12.22,0,0,0,1-5.15,11.17,11.17,0,0,0-3.34-8.4,27.43,27.43,0,0,0-9.16-5.54,120.86,120.86,0,0,0-13.07-4.2l-14.89-3.91a119.78,119.78,0,0,1-14.89-5,60.5,60.5,0,0,1-13-7.16,31.13,31.13,0,0,1-9.16-10.69,33,33,0,0,1-3.43-15.65,32.77,32.77,0,0,1,4.1-16.79A33.26,33.26,0,0,1,969.82,110,56,56,0,0,1,987,103.19a96.45,96.45,0,0,1,21.18-2.2,90.18,90.18,0,0,1,20.23,2.2,51,51,0,0,1,16.8,7,34.9,34.9,0,0,1,11.36,12,34.39,34.39,0,0,1,4.1,17.18v2.29H1033v-1.53a13.16,13.16,0,0,0-3.06-8.78,20.5,20.5,0,0,0-8.59-5.73,36.72,36.72,0,0,0-13-2.1A52.62,52.62,0,0,0,994.73,125a18.91,18.91,0,0,0-8.59,4.49,9.49,9.49,0,0,0-3,7,9.6,9.6,0,0,0,3.34,7.54,29.29,29.29,0,0,0,9.16,5.16,108.5,108.5,0,0,0,13.08,3.91q7.25,1.71,14.88,3.82a146,146,0,0,1,14.89,5,55.36,55.36,0,0,1,13,7.16,32.51,32.51,0,0,1,9.16,10.59,31.08,31.08,0,0,1,3.44,15.08q0,15.07-7.26,24.24T1037,232.31A90.94,90.94,0,0,1,1008.18,236.51Z"/><path class="cls-1" d="M1114.68,234.22V103.28h26.15l52.68,70.62c.77.89,1.72,2.14,2.86,3.73s2.23,3.14,3.25,4.67a24.54,24.54,0,0,1,2.1,3.63h1V103.28h26.92V234.22h-26.15l-53.83-72.34q-1.9-2.67-4-5.92c-1.4-2.16-2.41-3.82-3-5h-1v83.22Z"/><path class="cls-1" d="M1314.9,236.51q-20.81,0-35.88-7.45a51.39,51.39,0,0,1-23.1-22.52q-8-15.07-8-37.79,0-23.08,8-38.08a51,51,0,0,1,23.1-22.33q15.07-7.35,35.88-7.35,21.19,0,36.17,7.35a51,51,0,0,1,23,22.33q8,15,8,38.08,0,22.71-8,37.79a51.42,51.42,0,0,1-23,22.52Q1336.09,236.52,1314.9,236.51Zm0-23.29a46.3,46.3,0,0,0,16.42-2.67,29.6,29.6,0,0,0,11.83-8,35.66,35.66,0,0,0,7.25-13.07,57.55,57.55,0,0,0,2.48-17.66v-5.91A59.11,59.11,0,0,0,1350.4,148a34.68,34.68,0,0,0-7.25-13.08,30.12,30.12,0,0,0-11.83-7.92,46.3,46.3,0,0,0-16.42-2.67,45.63,45.63,0,0,0-16.22,2.67,30.08,30.08,0,0,0-11.84,7.92,33.73,33.73,0,0,0-7.15,13.08,61.18,61.18,0,0,0-2.39,17.94v5.91a59.56,59.56,0,0,0,2.39,17.66,34.65,34.65,0,0,0,7.15,13.07,29.56,29.56,0,0,0,11.84,8A45.63,45.63,0,0,0,1314.9,213.22Z"/><path class="cls-1" d="M1419.12,234.22l-34.36-130.94h30.16L1434,181.35a36.47,36.47,0,0,1,1.15,5.05c.38,2.23.76,4.56,1.14,7s.7,4.58,1,6.49h1c.26-1.4.48-3,.67-4.77s.44-3.53.76-5.25.64-3.34,1-4.87.54-2.73.67-3.62L1459,103.28h34l18.13,78.07a47.16,47.16,0,0,1,1.15,5.15q.57,3.25,1.14,6.87c.39,2.42.7,4.58,1,6.49h1c.26-1.4.54-2.92.86-4.58s.64-3.34,1-5.06.66-3.34,1-4.86.69-2.87,1-4l18.9-78.07h27.29l-34.55,130.94h-32.44l-19.28-80.55c-.38-1.78-.8-3.85-1.24-6.2s-.86-4.68-1.24-7-.7-4.32-1-6.11h-.76c-.26,1.79-.54,3.89-.86,6.3s-.7,4.77-1.15,7.06-.85,4.27-1.24,5.92l-19.08,80.55Z"/><path class="cls-1" d="M442.35,334.44V288.57h6.35v19.66h24.95V288.57h6.42v45.87h-6.42V313.78H448.7v20.66Z"/><path class="cls-1" d="M522.19,335.25a26.71,26.71,0,0,1-12.27-2.61,18,18,0,0,1-7.89-7.89q-2.77-5.28-2.77-13.24T502,298.24a18,18,0,0,1,7.89-7.86,30.15,30.15,0,0,1,24.54,0,18,18,0,0,1,7.89,7.86q2.77,5.25,2.78,13.27t-2.78,13.24a18,18,0,0,1-7.89,7.89A26.71,26.71,0,0,1,522.19,335.25Zm0-5.49a21.57,21.57,0,0,0,6.79-1,12.53,12.53,0,0,0,5.15-3.18,14.48,14.48,0,0,0,3.24-5.48,24.19,24.19,0,0,0,1.14-7.86v-1.4a24.36,24.36,0,0,0-1.14-7.92,14.6,14.6,0,0,0-3.24-5.49,12.4,12.4,0,0,0-5.15-3.17,23.43,23.43,0,0,0-13.61,0,12.73,12.73,0,0,0-5.15,3.17,14.1,14.1,0,0,0-3.24,5.49,25,25,0,0,0-1.1,7.92v1.4a24.81,24.81,0,0,0,1.1,7.86,14,14,0,0,0,3.24,5.48,12.86,12.86,0,0,0,5.15,3.18A21.5,21.5,0,0,0,522.19,329.76Z"/><path class="cls-1" d="M564.32,334.44V288.57h9.83l10.43,29.76c.27.8.54,1.68.83,2.64s.56,1.86.81,2.71.43,1.58.57,2.2h.46c.14-.66.32-1.43.54-2.3s.47-1.77.73-2.71.52-1.78.74-2.54l10.43-29.76h9.76v45.87H603.1V307.56c0-1.38,0-2.88.07-4.51s.09-3.12.13-4.48.07-2.33.07-2.91h-.54c-.13.58-.35,1.39-.66,2.44s-.64,2.14-1,3.28-.64,2.15-.91,3l-10.76,30H584l-10.76-30q-.4-1.14-.84-2.64c-.29-1-.58-2-.87-3.11s-.56-2.07-.83-3h-.47c0,1,.08,2.2.1,3.64s0,2.9.07,4.35,0,2.75,0,3.91v26.88Z"/><path class="cls-1" d="M631,334.44V288.57h35.31v5.49H637.34v14.17h26v5.49h-26V329h29.35v5.48Z"/><path class="cls-1" d="M710.29,334.44V288.57h24.14a16,16,0,0,1,7.79,1.71,11,11,0,0,1,4.65,4.75,15.29,15.29,0,0,1,1.53,7,15,15,0,0,1-2.14,8.16,11.93,11.93,0,0,1-5.88,4.88L750,334.44h-7l-9-18.25H716.64v18.25Zm6.35-23.67h17.19a7.76,7.76,0,0,0,6-2.34,10.48,10.48,0,0,0,1.24-10.7,6.55,6.55,0,0,0-2.74-2.7,9.36,9.36,0,0,0-4.48-1H716.64Z"/><path class="cls-1" d="M768.93,334.44V288.57h35.31v5.49h-29v14.17h26v5.49h-26V329h29.36v5.48Z"/><path class="cls-1" d="M824.23,334.44V288.57H846.9a15.93,15.93,0,0,1,7.89,1.77,11.46,11.46,0,0,1,4.71,4.92,16.07,16.07,0,0,1,1.57,7.29,15.6,15.6,0,0,1-1.73,7.45,12.4,12.4,0,0,1-4.92,5.05,15.06,15.06,0,0,1-7.59,1.81H830.58v17.58Zm6.35-23.07h15.85a7.84,7.84,0,0,0,6-2.34,8.87,8.87,0,0,0,2.24-6.42,10.32,10.32,0,0,0-.93-4.61,6.82,6.82,0,0,0-2.74-2.91,9.06,9.06,0,0,0-4.55-1H830.58Z"/><path class="cls-1" d="M870.1,334.44l18.12-45.87h8.36l18.19,45.87h-6.89l-4.48-11.36H881.07l-4.42,11.36Zm13-16.78h18.12l-5.55-14.38c-.13-.4-.33-.95-.6-1.67s-.56-1.5-.87-2.37-.62-1.76-.94-2.68-.6-1.75-.87-2.5H892c-.31.89-.66,1.91-1.07,3.07s-.8,2.29-1.2,3.38-.74,2-1,2.77Z"/><path class="cls-1" d="M931,334.44V288.57h6.35v45.87Z"/><path class="cls-1" d="M958.9,334.44V288.57H983a16,16,0,0,1,7.79,1.71,11,11,0,0,1,4.65,4.75,15.29,15.29,0,0,1,1.54,7,15.08,15.08,0,0,1-2.14,8.16,12,12,0,0,1-5.89,4.88l9.63,19.39h-7l-9-18.25H965.25v18.25Zm6.35-23.67h17.19a7.76,7.76,0,0,0,6-2.34,10.41,10.41,0,0,0,1.24-10.7,6.49,6.49,0,0,0-2.74-2.7,9.36,9.36,0,0,0-4.48-1H965.25Z"/><path class="cls-1" d="M1034.39,335.25a34.28,34.28,0,0,1-7.18-.74,19.33,19.33,0,0,1-6.12-2.37,12.43,12.43,0,0,1-4.25-4.25,12.22,12.22,0,0,1-1.57-6.42c0-.22,0-.44,0-.67a4.92,4.92,0,0,0,0-.67h6.42c0,.14,0,.35,0,.64s0,.55,0,.77a6.76,6.76,0,0,0,1.6,4.55,9.54,9.54,0,0,0,4.45,2.77,21.39,21.39,0,0,0,6.45.9,28.68,28.68,0,0,0,3.38-.2,18.09,18.09,0,0,0,3.41-.7,11.63,11.63,0,0,0,2.94-1.34,6.53,6.53,0,0,0,2.08-2.07,5.67,5.67,0,0,0,.76-3,5.55,5.55,0,0,0-1.3-3.78,9.85,9.85,0,0,0-3.44-2.47,34.46,34.46,0,0,0-4.85-1.74q-2.72-.78-5.58-1.51t-5.59-1.7a22.17,22.17,0,0,1-4.85-2.41,11.51,11.51,0,0,1-3.44-3.58,9.8,9.8,0,0,1-1.3-5.21,11.07,11.07,0,0,1,1.17-5.15,10.43,10.43,0,0,1,3.47-3.85,17.55,17.55,0,0,1,5.72-2.4,32.82,32.82,0,0,1,7.82-.84,28,28,0,0,1,6.72.77,17.25,17.25,0,0,1,5.49,2.34,11.3,11.3,0,0,1,3.71,4,11.81,11.81,0,0,1,1.34,5.82v.8h-6.29v-1a5.71,5.71,0,0,0-1.4-3.88,9,9,0,0,0-3.85-2.48,16.34,16.34,0,0,0-5.51-.87,24.7,24.7,0,0,0-6.69.77,8.44,8.44,0,0,0-4,2.21,4.7,4.7,0,0,0-1.3,3.24,4.93,4.93,0,0,0,1.3,3.48,9.94,9.94,0,0,0,3.44,2.31,38.67,38.67,0,0,0,4.88,1.63l5.59,1.51q2.84.77,5.55,1.74a22.85,22.85,0,0,1,4.88,2.4,10.81,10.81,0,0,1,3.44,3.62,10.31,10.31,0,0,1,1.27,5.31,12.43,12.43,0,0,1-2.4,7.93,13.74,13.74,0,0,1-6.62,4.44A30.82,30.82,0,0,1,1034.39,335.25Z"/><path class="cls-1" d="M1096.58,334.44V288.57h9.83l10.43,29.76q.4,1.2.84,2.64c.29,1,.55,1.86.8,2.71s.43,1.58.57,2.2h.47c.13-.66.31-1.43.53-2.3s.47-1.77.74-2.71.51-1.78.73-2.54L1132,288.57h9.77v45.87h-6.36V307.56c0-1.38,0-2.88.07-4.51s.09-3.12.13-4.48.07-2.33.07-2.91h-.53c-.14.58-.36,1.39-.67,2.44s-.64,2.14-1,3.28-.64,2.15-.9,3l-10.77,30h-5.48l-10.77-30q-.4-1.14-.84-2.64c-.29-1-.58-2-.86-3.11s-.57-2.07-.84-3h-.47c0,1,.08,2.2.1,3.64s0,2.9.07,4.35,0,2.75,0,3.91v26.88Z"/><path class="cls-1" d="M1158,334.44l18.12-45.87h8.36l18.19,45.87h-6.89l-4.48-11.36h-22.33l-4.41,11.36Zm13-16.78h18.12l-5.55-14.38c-.13-.4-.33-.95-.6-1.67s-.56-1.5-.87-2.37-.62-1.76-.93-2.68-.6-1.75-.87-2.5h-.4c-.32.89-.67,1.91-1.07,3.07s-.81,2.29-1.21,3.38-.73,2-1,2.77Z"/><path class="cls-1" d="M1218.88,334.44V288.57H1236a28.64,28.64,0,0,1,12.3,2.41,16.75,16.75,0,0,1,7.79,7.46q2.72,5,2.71,13.07t-2.71,13a16.88,16.88,0,0,1-7.79,7.52,28.19,28.19,0,0,1-12.3,2.44Zm6.35-5.48h10.63a22,22,0,0,0,6.82-1,13.36,13.36,0,0,0,5.15-3,12.69,12.69,0,0,0,3.25-5.19,23.3,23.3,0,0,0,1.1-7.59v-1.33a23.9,23.9,0,0,0-1.1-7.73,12.37,12.37,0,0,0-8.33-8.15,22.35,22.35,0,0,0-6.89-1h-10.63Z"/><path class="cls-1" d="M1278,334.44V288.57h35.31v5.49h-29v14.17h26v5.49h-26V329h29.36v5.48Z"/><path class="cls-1" d="M1357.29,334.44V288.57h35.31v5.49h-28.95v14.17h26v5.49h-26V329H1393v5.48Z"/><path class="cls-1" d="M1407.31,334.44l18.12-45.87h8.36L1452,334.44h-6.89l-4.48-11.36h-22.33l-4.42,11.36Zm13-16.78h18.12l-5.55-14.38c-.13-.4-.33-.95-.6-1.67s-.56-1.5-.87-2.37-.62-1.76-.94-2.68-.6-1.75-.87-2.5h-.4c-.31.89-.66,1.91-1.07,3.07s-.8,2.29-1.2,3.38-.74,2-1,2.77Z"/><path class="cls-1" d="M1485.08,335.25a34.3,34.3,0,0,1-7.19-.74,19.33,19.33,0,0,1-6.12-2.37,12.41,12.41,0,0,1-4.24-4.25,12.22,12.22,0,0,1-1.58-6.42,5.12,5.12,0,0,1,0-.67c0-.22,0-.44,0-.67h6.42c0,.14,0,.35,0,.64a7.5,7.5,0,0,0,0,.77,6.77,6.77,0,0,0,1.61,4.55,9.5,9.5,0,0,0,4.44,2.77,21.41,21.41,0,0,0,6.46.9,28.52,28.52,0,0,0,3.37-.2,18.09,18.09,0,0,0,3.41-.7,11.54,11.54,0,0,0,2.95-1.34,6.4,6.4,0,0,0,2.07-2.07,5.67,5.67,0,0,0,.77-3,5.55,5.55,0,0,0-1.31-3.78,9.67,9.67,0,0,0-3.44-2.47,34,34,0,0,0-4.85-1.74q-2.7-.78-5.58-1.51t-5.58-1.7a21.74,21.74,0,0,1-4.85-2.41,11.43,11.43,0,0,1-3.45-3.58,9.89,9.89,0,0,1-1.3-5.21,11.07,11.07,0,0,1,1.17-5.15,10.37,10.37,0,0,1,3.48-3.85,17.49,17.49,0,0,1,5.71-2.4,33,33,0,0,1,7.83-.84,28,28,0,0,1,6.72.77,17.29,17.29,0,0,1,5.48,2.34,11.3,11.3,0,0,1,3.71,4,11.81,11.81,0,0,1,1.34,5.82v.8h-6.29v-1a5.66,5.66,0,0,0-1.4-3.88,9,9,0,0,0-3.84-2.48,16.4,16.4,0,0,0-5.52-.87,24.75,24.75,0,0,0-6.69.77,8.44,8.44,0,0,0-4,2.21,4.7,4.7,0,0,0-1.3,3.24,4.93,4.93,0,0,0,1.3,3.48,9.89,9.89,0,0,0,3.45,2.31,37.62,37.62,0,0,0,4.88,1.63l5.58,1.51q2.85.77,5.55,1.74a22.62,22.62,0,0,1,4.88,2.4,10.94,10.94,0,0,1,3.45,3.62,10.41,10.41,0,0,1,1.27,5.31,12.37,12.37,0,0,1-2.41,7.93,13.69,13.69,0,0,1-6.62,4.44A30.75,30.75,0,0,1,1485.08,335.25Z"/><path class="cls-1" d="M1533.56,334.44V315.39l-18.06-26.82h7.29l14,21.2h.33l13.91-21.2h7l-18,26.82v19.05Z"/><path class="cls-1" d="M74.07,379.94c-8-3.88-9.78-7.77-7.63-16.35,6.41-25.63,12.75-51.28,19.27-76.88A14.45,14.45,0,0,0,83,273.55Q43.38,220.28,3.93,166.91c-5.11-6.89-5.21-10.27-.45-17.43Q27.63,113.23,51.81,77c4.94-7.41,9.78-8.7,17.64-4.77Q112.2,93.61,155,115c9.54,4.78,11.1,10.85,5.19,19.77-8.64,13-7.49,12.95-23.83,12.87-19.79-.1-39.57,0-59.36,0-7.71,0-12.61,4.26-12.67,10.93s5.07,11.29,12.83,11.31c14,0,27.95.12,41.93-.06,3.13,0,4.76.83,6.19,3.72,16.11,32.53,32.41,65,48.6,97.48,1.84,3.68,4.07,6.89,8.26,7.93,4.42,1.1,8.42.13,11.38-3.5a10.79,10.79,0,0,0,1.37-12.18c-3.64-7.57-7.47-15-11.23-22.56Q167,207.36,150.32,174c-.6-1.19-1.15-2.41-2.26-4.78,4,.75,7.39.76,10.23,2,31.88,14,63.82,27.89,95.44,42.45,15.58,7.17,29.7,7.27,42.85-4.58.28.3.58.47.58.63-.45,14.92.37,30-1.72,44.73-2.47,17.36-12.65,30.9-27.21,40.78-12.53,8.51-12.3,7.49-12.22,23.45.07,15.59-.21,31.17.12,46.75.14,6.84-2,11.71-8.39,14.46Z"/><path class="cls-1" d="M260.32,102.26c-.93,2.1-1.58,4.4-2.83,6.29q-18.09,27.35-36.36,54.58c-4.1,6.13-8.95,7.53-15.65,4.62q-9.34-4.06-18.61-8.26c-7.3-3.33-9.44-10.47-5-17.19Q201.23,113.11,220.75,84c3.95-5.89,10.14-7.19,16.13-3.44S248.54,88,254.31,91.84A12.42,12.42,0,0,1,260.32,102.26Z"/><path class="cls-1" d="M316,138.67a29.25,29.25,0,0,1-2.45,5.79q-15.27,23.19-30.78,46.22c-4,6-8.82,7.36-15.36,4.55-6.34-2.73-12.67-5.5-18.94-8.38-7.1-3.26-9.28-10.43-5-16.93q16.51-25,33.27-49.9c3.84-5.71,10.08-7,15.87-3.4,6.07,3.78,12,7.77,18,11.65C314,130.45,315.52,133.66,316,138.67Z"/><path class="cls-1" d="M116.09,70.65l-45-22.49c.68-1.07,1.22-2,1.8-2.83Q85.76,26.05,98.6,6.81C103.71-.85,109.3-2,117.11,3.07c7.06,4.55,14.15,9,21.12,13.72,5.34,3.57,6.91,10,3.48,15.25C133.38,44.87,124.81,57.55,116.09,70.65Z"/><path class="cls-1" d="M136.14,80.67c8.39-12.55,16.46-24.84,24.77-37a10.46,10.46,0,0,1,14.23-3q12.48,7.64,24.59,15.9a10.39,10.39,0,0,1,3,13.92c-6.94,10.93-14.24,21.64-21.51,32.62Z"/></g></g></svg>