<svg xmlns="http://www.w3.org/2000/svg" viewBox="0 0 397.21 477.66"><defs><style>.cls-1{fill:#fff;}</style></defs><g id="Layer_2" data-name="Layer 2"><g id="Layer_1-2" data-name="Layer 1"><path class="cls-1" d="M93.12,477.66c-10-4.88-12.29-9.77-9.59-20.56,8.06-32.22,16-64.47,24.23-96.66,1.6-6.28.41-11.41-3.41-16.54q-49.8-67-99.41-134.07c-6.42-8.66-6.55-12.91-.56-21.9q30.36-45.59,60.75-91.14c6.22-9.32,12.3-10.93,22.18-6l107.5,53.74c12,6,14,13.64,6.52,24.86-10.86,16.38-9.4,16.28-30,16.17-24.87-.12-49.75,0-74.63,0-9.69,0-15.85,5.36-15.92,13.73S87.2,213.48,97,213.51c17.57.06,35.15.15,52.71-.08,3.94-.05,6,1,7.79,4.68,20.26,40.9,40.74,81.7,61.1,122.55,2.31,4.62,5.12,8.66,10.38,10,5.55,1.38,10.59.17,14.3-4.4A13.59,13.59,0,0,0,245,330.91c-4.58-9.51-9.4-18.91-14.13-28.35Q209.91,260.68,189,218.81c-.75-1.51-1.44-3-2.85-6,5.05,1,9.3,1,12.87,2.53,40.08,17.6,80.23,35.06,120,53.37,19.59,9,37.33,9.14,53.86-5.77.36.38.74.59.73.8-.56,18.76.48,37.76-2.15,56.23-3.11,21.82-15.91,38.85-34.22,51.28-15.74,10.69-15.45,9.41-15.36,29.48.09,19.59-.26,39.18.15,58.76.18,8.6-2.53,14.73-10.54,18.19Z" transform="translate(0 0)"/><path class="cls-1" d="M327.27,128.56c-1.17,2.65-2,5.53-3.55,7.9Q301,170.85,278,205.09c-5.16,7.7-11.25,9.46-19.68,5.8q-11.73-5.1-23.39-10.39c-9.18-4.17-11.86-13.16-6.27-21.61Q253,142.2,277.52,105.64c5-7.41,12.76-9,20.28-4.32,7.37,4.61,14.66,9.35,21.92,14.14C324.77,118.8,326.9,122.9,327.27,128.56Z" transform="translate(0 0)"/><path class="cls-1" d="M397.21,174.34c-.69,1.67-1.44,4.77-3.08,7.27q-19.2,29.16-38.7,58.11c-5,7.51-11.09,9.25-19.31,5.72-8-3.43-15.92-6.92-23.81-10.54-8.93-4.09-11.67-13.1-6.27-21.28q20.76-31.47,41.83-62.73c4.83-7.18,12.67-8.82,19.94-4.28,7.63,4.76,15.11,9.77,22.67,14.64C394.75,164,396.67,168,397.21,174.34Z" transform="translate(0 0)"/><path class="cls-1" d="M146,88.82,89.41,60.55C90.27,59.2,91,58.07,91.68,57Q107.81,32.77,124,8.56c6.42-9.62,13.46-11,23.27-4.71C156.1,9.58,165,15.23,173.78,21.1c6.72,4.5,8.69,12.53,4.37,19.18C167.68,56.41,156.9,72.35,146,88.82Z" transform="translate(0 0)"/><path class="cls-1" d="M171.16,101.42C181.7,85.63,191.84,70.18,202.3,55a13.14,13.14,0,0,1,17.88-3.71q15.7,9.6,30.91,20a13,13,0,0,1,3.77,17.5c-8.72,13.75-17.9,27.21-27,41Z" transform="translate(0 0)"/></g></g></svg>